<?xml version="1.0" encoding="UTF-8" standalone="no"?>
<!-- Created with Inkscape (http://www.inkscape.org/) -->

<svg
   xmlns:dc="http://purl.org/dc/elements/1.1/"
   xmlns:cc="http://creativecommons.org/ns#"
   xmlns:rdf="http://www.w3.org/1999/02/22-rdf-syntax-ns#"
   xmlns:svg="http://www.w3.org/2000/svg"
   xmlns="http://www.w3.org/2000/svg"
   xmlns:sodipodi="http://sodipodi.sourceforge.net/DTD/sodipodi-0.dtd"
   xmlns:inkscape="http://www.inkscape.org/namespaces/inkscape"
   width="35.277779mm"
   height="35.277779mm"
   viewBox="0 0 125 125"
   id="svg2"
   version="1.1"
   inkscape:version="0.91 r13725"
   sodipodi:docname="mapmarker.svg">
  <defs
     id="defs4" />
  <sodipodi:namedview
     id="base"
     pagecolor="#ffffff"
     bordercolor="#666666"
     borderopacity="1.0"
     inkscape:pageopacity="0.0"
     inkscape:pageshadow="2"
     inkscape:zoom="0.9899495"
     inkscape:cx="-62.444318"
     inkscape:cy="34.814667"
     inkscape:document-units="px"
     inkscape:current-layer="layer1"
     showgrid="false"
     inkscape:window-width="1305"
     inkscape:window-height="744"
     inkscape:window-x="61"
     inkscape:window-y="24"
     inkscape:window-maximized="1"
     fit-margin-top="0"
     fit-margin-left="0"
     fit-margin-right="0"
     fit-margin-bottom="0" />
  <metadata
     id="metadata7">
    <rdf:RDF>
      <cc:Work
         rdf:about="">
        <dc:format>image/svg+xml</dc:format>
        <dc:type
           rdf:resource="http://purl.org/dc/dcmitype/StillImage" />
        <dc:title></dc:title>
      </cc:Work>
    </rdf:RDF>
  </metadata>
  <g
     inkscape:label="Layer 1"
     inkscape:groupmode="layer"
     id="layer1"
     transform="translate(-245.71429,-318.07651)">
    <circle
       style="fill:#cccccc;fill-opacity:1;fill-rule:evenodd;stroke:#000000;stroke-width:0;stroke-linecap:butt;stroke-linejoin:miter;stroke-miterlimit:4;stroke-dasharray:none;stroke-opacity:1"
       id="path4140"
       cx="308.21429"
       cy="380.57651"
       r="62.499996" />
    <g
       id="g5519"
       transform="matrix(0.09977195,0,0,0.11023333,209.75434,347.75284)"
       style="fill:#ffffff;fill-opacity:0.98742137">
      <path
         d="m 986.8501,569.61532 c 0,0.1 0.2,0.3 0.2,0.3 0,0 175.2,-269 175.2,-357.4 0,-130.099998 -88.8,-186.699998 -175.4,-186.899998 -86.6,0.2 -175.4,56.8 -175.4,186.899998 0,88.4 175.3,357.4 175.3,357.4 0,0 0.1,-0.3 0.1,-0.3 z m -60.7,-364.5 c 0,-33.6 27.2,-60.8 60.8,-60.8 33.6,0 60.8,27.2 60.8,60.8 0,33.6 -27.3,60.8 -60.9,60.8 -33.5,0 -60.7,-27.2 -60.7,-60.8 z"
         id="path5521"
         inkscape:connector-curvature="0"
         style="fill:#ffffff;fill-opacity:0.98742137" />
    </g>
  </g>
</svg>
