<?xml version="1.0" encoding="UTF-8" standalone="no"?>
<!-- Generator: Adobe Illustrator 19.0.0, SVG Export Plug-In . SVG Version: 6.00 Build 0)  -->

<svg
   xmlns:osb="http://www.openswatchbook.org/uri/2009/osb"
   xmlns:dc="http://purl.org/dc/elements/1.1/"
   xmlns:cc="http://creativecommons.org/ns#"
   xmlns:rdf="http://www.w3.org/1999/02/22-rdf-syntax-ns#"
   xmlns:svg="http://www.w3.org/2000/svg"
   xmlns="http://www.w3.org/2000/svg"
   xmlns:sodipodi="http://sodipodi.sourceforge.net/DTD/sodipodi-0.dtd"
   xmlns:inkscape="http://www.inkscape.org/namespaces/inkscape"
   version="1.1"
   id="Layer_1"
   x="0px"
   y="0px"
   viewBox="0 0 932.45497 220.81076"
   xml:space="preserve"
   inkscape:version="0.91 r13725"
   sodipodi:docname="soc.svg"
   width="932.4549"
   height="220.81075"><metadata
     id="metadata39"><rdf:RDF><cc:Work
         rdf:about=""><dc:format>image/svg+xml</dc:format><dc:type
           rdf:resource="http://purl.org/dc/dcmitype/StillImage" /><dc:title /></cc:Work></rdf:RDF></metadata><defs
     id="defs37"><linearGradient
       id="linearGradient5821"
       osb:paint="solid"><stop
         style="stop-color:#00008d;stop-opacity:1;"
         offset="0"
         id="stop5823" /></linearGradient></defs><sodipodi:namedview
     pagecolor="#ffffff"
     bordercolor="#666666"
     borderopacity="1"
     objecttolerance="10"
     gridtolerance="10"
     guidetolerance="10"
     inkscape:pageopacity="0"
     inkscape:pageshadow="2"
     inkscape:window-width="1305"
     inkscape:window-height="744"
     id="namedview35"
     showgrid="false"
     fit-margin-top="0"
     fit-margin-left="0"
     fit-margin-right="0"
     fit-margin-bottom="0"
     inkscape:zoom="0.5482889"
     inkscape:cx="251.01371"
     inkscape:cy="120.68924"
     inkscape:window-x="61"
     inkscape:window-y="24"
     inkscape:window-maximized="1"
     inkscape:current-layer="Layer_1" /><g
     id="XMLID_1_"
     transform="matrix(0.69887973,0,0,1.2349691,297.56206,-77.178216)"
     style="opacity:1;fill:#00008d;fill-opacity:0.98823529;fill-rule:nonzero"><path
       id="XMLID_807_"
       style="clip-rule:evenodd;fill:#00008d;fill-opacity:0.98823529;fill-rule:nonzero"
       d="m 261.945,175.576 c 10.096,9.857 20.752,19.131 29.807,29.982 4,4.822 7.787,9.798 10.684,15.394 4.105,7.955 0.387,16.709 -6.746,17.184 l -44.34,-0.02 c -11.436,0.949 -20.559,-3.655 -28.23,-11.474 -6.139,-6.253 -11.824,-12.908 -17.727,-19.372 -2.42,-2.642 -4.953,-5.128 -7.979,-7.093 -6.053,-3.929 -11.307,-2.726 -14.766,3.587 -3.523,6.421 -4.322,13.531 -4.668,20.687 -0.475,10.441 -3.631,13.186 -14.119,13.664 -22.414,1.057 -43.686,-2.334 -63.447,-13.641 C 82.992,214.506 69.482,200.434 57.723,184.503 34.828,153.482 17.295,119.395 1.537,84.353 -2.01,76.458 0.584,72.22 9.295,72.07 c 14.465,-0.281 28.928,-0.261 43.41,-0.02 5.879,0.086 9.771,3.458 12.041,9.012 7.826,19.243 17.402,37.551 29.422,54.521 3.201,4.518 6.465,9.036 11.113,12.216 5.142,3.521 9.057,2.354 11.476,-3.374 1.535,-3.632 2.207,-7.544 2.553,-11.434 1.146,-13.383 1.297,-26.743 -0.713,-40.079 -1.234,-8.323 -5.922,-13.711 -14.227,-15.286 -4.238,-0.803 -3.607,-2.38 -1.555,-4.799 3.564,-4.172 6.916,-6.769 13.598,-6.769 l 50.111,0 c 7.889,1.557 9.641,5.101 10.721,13.039 l 0.043,55.663 c -0.086,3.073 1.535,12.192 7.07,14.226 4.43,1.448 7.35,-2.096 10.008,-4.905 11.998,-12.734 20.561,-27.783 28.211,-43.366 3.395,-6.852 6.314,-13.968 9.143,-21.078 2.096,-5.276 5.385,-7.872 11.328,-7.757 l 48.229,0.043 c 1.43,0 2.877,0.021 4.262,0.258 8.127,1.385 10.354,4.881 7.844,12.817 -3.955,12.451 -11.65,22.827 -19.174,33.251 -8.043,11.129 -16.645,21.877 -24.621,33.072 -7.328,10.223 -6.746,15.376 2.357,24.255 l 0,0 z m 0,0"
       inkscape:connector-curvature="0" /></g><g
     id="g5"
     transform="translate(39.75623,-304.5755)" /><g
     id="g7"
     transform="translate(39.75623,-304.5755)" /><g
     id="g9"
     transform="translate(39.75623,-304.5755)" /><g
     id="g11"
     transform="translate(39.75623,-304.5755)" /><g
     id="g13"
     transform="translate(39.75623,-304.5755)" /><g
     id="g15"
     transform="translate(39.75623,-304.5755)" /><g
     id="g17"
     transform="translate(39.75623,-304.5755)" /><g
     id="g19"
     transform="translate(39.75623,-304.5755)" /><g
     id="g21"
     transform="translate(39.75623,-304.5755)" /><g
     id="g23"
     transform="translate(39.75623,-304.5755)" /><g
     id="g25"
     transform="translate(39.75623,-304.5755)" /><g
     id="g27"
     transform="translate(39.75623,-304.5755)" /><g
     id="g29"
     transform="translate(39.75623,-304.5755)" /><g
     id="g31"
     transform="translate(39.75623,-304.5755)" /><g
     id="g33"
     transform="translate(39.75623,-304.5755)" /><g
     id="g4209"
     transform="matrix(0.41708131,0,0,0.41708131,0,8.0992838)"
     style="fill:#00008d;fill-opacity:0.98823529"><g
       id="g4168"
       style="fill:#00008d;fill-opacity:0.98823529"><g
         id="post-instagram"
         style="fill:#00008d;fill-opacity:0.98823529"><path
           id="path4171"
           d="M 459,0 51,0 C 22.95,0 0,22.95 0,51 l 0,408 c 0,28.05 22.95,51 51,51 l 408,0 c 28.05,0 51,-22.95 51,-51 L 510,51 C 510,22.95 487.05,0 459,0 Z M 255,153 c 56.1,0 102,45.9 102,102 0,56.1 -45.9,102 -102,102 -56.1,0 -102,-45.9 -102,-102 0,-56.1 45.9,-102 102,-102 z M 63.75,459 C 56.1,459 51,453.9 51,446.25 l 0,-216.75 53.55,0 C 102,237.15 102,247.35 102,255 c 0,84.15 68.85,153 153,153 84.15,0 153,-68.85 153,-153 0,-7.65 0,-17.85 -2.55,-25.5 l 53.55,0 0,216.75 c 0,7.65 -5.1,12.75 -12.75,12.75 l -382.5,0 z M 459,114.75 c 0,7.65 -5.1,12.75 -12.75,12.75 l -51,0 c -7.65,0 -12.75,-5.1 -12.75,-12.75 l 0,-51 C 382.5,56.1 387.6,51 395.25,51 l 51,0 C 453.9,51 459,56.1 459,63.75 l 0,51 z"
           inkscape:connector-curvature="0"
           style="fill:#00008d;fill-opacity:0.98823529" /></g></g><g
       id="g4173"
       style="fill:#00008d;fill-opacity:0.98823529" /><g
       id="g4175"
       style="fill:#00008d;fill-opacity:0.98823529" /><g
       id="g4177"
       style="fill:#00008d;fill-opacity:0.98823529" /><g
       id="g4179"
       style="fill:#00008d;fill-opacity:0.98823529" /><g
       id="g4181"
       style="fill:#00008d;fill-opacity:0.98823529" /><g
       id="g4183"
       style="fill:#00008d;fill-opacity:0.98823529" /><g
       id="g4185"
       style="fill:#00008d;fill-opacity:0.98823529" /><g
       id="g4187"
       style="fill:#00008d;fill-opacity:0.98823529" /><g
       id="g4189"
       style="fill:#00008d;fill-opacity:0.98823529" /><g
       id="g4191"
       style="fill:#00008d;fill-opacity:0.98823529" /><g
       id="g4193"
       style="fill:#00008d;fill-opacity:0.98823529" /><g
       id="g4195"
       style="fill:#00008d;fill-opacity:0.98823529" /><g
       id="g4197"
       style="fill:#00008d;fill-opacity:0.98823529" /><g
       id="g4199"
       style="fill:#00008d;fill-opacity:0.98823529" /><g
       id="g4201"
       style="fill:#00008d;fill-opacity:0.98823529" /></g><g
     id="g4269"
     transform="matrix(2.4995841,0,0,2.3310426,578.70605,2.7094034)"
     style="fill:#00008d;fill-opacity:0.98823529;stroke:#00008d;stroke-width:1.24283159;stroke-miterlimit:4;stroke-dasharray:none;stroke-opacity:0.98823529"><g
       id="g4230"
       style="fill:#00008d;fill-opacity:0.98823529;stroke:#00008d;stroke-width:1.24283159;stroke-miterlimit:4;stroke-dasharray:none;stroke-opacity:0.98823529"><path
         d="M 74.499,0 50.144,0 c -6.382,0 -14.421,0.942 -21.158,6.49 -5.09,4.374 -7.566,10.392 -7.566,15.828 0,9.211 7.094,18.546 19.625,18.546 1.182,0 2.477,-0.12 3.787,-0.235 -0.592,1.413 -1.189,2.594 -1.189,4.605 0,3.662 1.893,5.902 3.547,8.029 -5.314,0.353 -15.249,0.942 -22.583,5.428 C 17.632,62.834 15.5,68.851 15.5,73.105 15.499,81.846 23.778,90 40.923,90 61.259,90 72.021,78.78 72.021,67.67 c 0,-8.143 -4.729,-12.164 -9.932,-16.534 l -4.258,-3.305 c -1.295,-1.065 -3.068,-2.479 -3.068,-5.08 0,-2.597 1.773,-4.254 3.307,-5.789 4.964,-3.896 9.933,-8.03 9.933,-16.77 0,-8.979 -5.68,-13.704 -8.396,-15.947 l 7.334,0 L 74.499,0 Z M 64.103,72.279 c 0,7.322 -6.033,12.753 -17.385,12.753 -12.648,0 -20.809,-6.024 -20.809,-14.405 0,-8.393 7.568,-11.218 10.166,-12.164 4.969,-1.656 11.352,-1.891 12.414,-1.891 1.184,0 1.775,0 2.725,0.115 8.988,6.377 12.889,9.57 12.889,15.592 z m -9.461,-38.03 c -1.893,1.886 -5.088,3.305 -8.045,3.305 -10.164,0 -14.772,-13.113 -14.772,-21.023 0,-3.072 0.592,-6.258 2.598,-8.74 1.893,-2.362 5.201,-3.899 8.277,-3.899 9.812,0 14.899,13.229 14.899,21.73 0,2.13 -0.241,5.906 -2.957,8.627 z"
         id="Google"
         inkscape:connector-curvature="0"
         style="fill:#00008d;fill-opacity:0.98823529;stroke:#00008d;stroke-width:1.24283159;stroke-miterlimit:4;stroke-dasharray:none;stroke-opacity:0.98823529" /></g><g
       id="g4233"
       style="fill:#00008d;fill-opacity:0.98823529;stroke:#00008d;stroke-width:1.24283159;stroke-miterlimit:4;stroke-dasharray:none;stroke-opacity:0.98823529" /><g
       id="g4235"
       style="fill:#00008d;fill-opacity:0.98823529;stroke:#00008d;stroke-width:1.24283159;stroke-miterlimit:4;stroke-dasharray:none;stroke-opacity:0.98823529" /><g
       id="g4237"
       style="fill:#00008d;fill-opacity:0.98823529;stroke:#00008d;stroke-width:1.24283159;stroke-miterlimit:4;stroke-dasharray:none;stroke-opacity:0.98823529" /><g
       id="g4239"
       style="fill:#00008d;fill-opacity:0.98823529;stroke:#00008d;stroke-width:1.24283159;stroke-miterlimit:4;stroke-dasharray:none;stroke-opacity:0.98823529" /><g
       id="g4241"
       style="fill:#00008d;fill-opacity:0.98823529;stroke:#00008d;stroke-width:1.24283159;stroke-miterlimit:4;stroke-dasharray:none;stroke-opacity:0.98823529" /><g
       id="g4243"
       style="fill:#00008d;fill-opacity:0.98823529;stroke:#00008d;stroke-width:1.24283159;stroke-miterlimit:4;stroke-dasharray:none;stroke-opacity:0.98823529" /><g
       id="g4245"
       style="fill:#00008d;fill-opacity:0.98823529;stroke:#00008d;stroke-width:1.24283159;stroke-miterlimit:4;stroke-dasharray:none;stroke-opacity:0.98823529" /><g
       id="g4247"
       style="fill:#00008d;fill-opacity:0.98823529;stroke:#00008d;stroke-width:1.24283159;stroke-miterlimit:4;stroke-dasharray:none;stroke-opacity:0.98823529" /><g
       id="g4249"
       style="fill:#00008d;fill-opacity:0.98823529;stroke:#00008d;stroke-width:1.24283159;stroke-miterlimit:4;stroke-dasharray:none;stroke-opacity:0.98823529" /><g
       id="g4251"
       style="fill:#00008d;fill-opacity:0.98823529;stroke:#00008d;stroke-width:1.24283159;stroke-miterlimit:4;stroke-dasharray:none;stroke-opacity:0.98823529" /><g
       id="g4253"
       style="fill:#00008d;fill-opacity:0.98823529;stroke:#00008d;stroke-width:1.24283159;stroke-miterlimit:4;stroke-dasharray:none;stroke-opacity:0.98823529" /><g
       id="g4255"
       style="fill:#00008d;fill-opacity:0.98823529;stroke:#00008d;stroke-width:1.24283159;stroke-miterlimit:4;stroke-dasharray:none;stroke-opacity:0.98823529" /><g
       id="g4257"
       style="fill:#00008d;fill-opacity:0.98823529;stroke:#00008d;stroke-width:1.24283159;stroke-miterlimit:4;stroke-dasharray:none;stroke-opacity:0.98823529" /><g
       id="g4259"
       style="fill:#00008d;fill-opacity:0.98823529;stroke:#00008d;stroke-width:1.24283159;stroke-miterlimit:4;stroke-dasharray:none;stroke-opacity:0.98823529" /><g
       id="g4261"
       style="fill:#00008d;fill-opacity:0.98823529;stroke:#00008d;stroke-width:1.24283159;stroke-miterlimit:4;stroke-dasharray:none;stroke-opacity:0.98823529" /></g><g
     id="g4328"
     transform="matrix(0.50024372,0,0,0.49454793,774.66909,-4.9442001e-4)"><g
       id="g4289"><path
         d="m 158.081,83.3 c 0,10.839 0,59.218 0,59.218 l -43.385,0 0,72.412 43.385,0 0,215.183 89.122,0 0,-215.177 59.805,0 c 0,0 5.601,-34.721 8.316,-72.685 -7.784,0 -67.784,0 -67.784,0 0,0 0,-42.127 0,-49.511 0,-7.4 9.717,-17.354 19.321,-17.354 9.586,0 29.818,0 48.557,0 0,-9.859 0,-43.924 0,-75.385 -25.016,0 -53.476,0 -66.021,0 C 155.878,-0.004 158.081,72.48 158.081,83.3 Z"
         id="Facebook"
         inkscape:connector-curvature="0"
         style="fill:#00008d;fill-opacity:0.98823529" /></g><g
       id="g4292" /><g
       id="g4294" /><g
       id="g4296" /><g
       id="g4298" /><g
       id="g4300" /><g
       id="g4302" /><g
       id="g4304" /><g
       id="g4306" /><g
       id="g4308" /><g
       id="g4310" /><g
       id="g4312" /><g
       id="g4314" /><g
       id="g4316" /><g
       id="g4318" /><g
       id="g4320" /></g></svg>