<?xml version="1.0" encoding="UTF-8" standalone="no"?>
<!-- Generator: Adobe Illustrator 17.1.0, SVG Export Plug-In . SVG Version: 6.00 Build 0)  -->

<svg
   xmlns:dc="http://purl.org/dc/elements/1.1/"
   xmlns:cc="http://creativecommons.org/ns#"
   xmlns:rdf="http://www.w3.org/1999/02/22-rdf-syntax-ns#"
   xmlns:svg="http://www.w3.org/2000/svg"
   xmlns="http://www.w3.org/2000/svg"
   xmlns:sodipodi="http://sodipodi.sourceforge.net/DTD/sodipodi-0.dtd"
   xmlns:inkscape="http://www.inkscape.org/namespaces/inkscape"
   version="1.1"
   id="Layer_1"
   x="0px"
   y="0px"
   width="128px"
   height="64px"
   viewBox="0 0 128 64"
   enable-background="new 0 0 128 64"
   xml:space="preserve"
   inkscape:version="0.48.4 r9939"
   sodipodi:docname="cd-socials.svg"><metadata
     id="metadata23"><rdf:RDF><cc:Work
         rdf:about=""><dc:format>image/svg+xml</dc:format><dc:type
           rdf:resource="http://purl.org/dc/dcmitype/StillImage" /></cc:Work></rdf:RDF></metadata><defs
     id="defs21" /><sodipodi:namedview
     pagecolor="#ffffff"
     bordercolor="#666666"
     borderopacity="1"
     objecttolerance="10"
     gridtolerance="10"
     guidetolerance="10"
     inkscape:pageopacity="0"
     inkscape:pageshadow="2"
     inkscape:window-width="1305"
     inkscape:window-height="744"
     id="namedview19"
     showgrid="false"
     inkscape:zoom="2.28125"
     inkscape:cx="130.06092"
     inkscape:cy="5.4448845"
     inkscape:window-x="61"
     inkscape:window-y="24"
     inkscape:window-maximized="1"
     inkscape:current-layer="Layer_1"
     inkscape:snap-bbox="true" /><path
     d="m 24,43 c -0.6,0.3 -1.2,0.4 -1.9,0.5 0.7,-0.4 1.2,-1 1.4,-1.8 -0.6,0.4 -1.3,0.6 -2.1,0.8 -0.6,-0.6 -1.5,-1 -2.4,-1 -1.8,0 -3.3,1.5 -3.3,3.3 0,0.3 0,0.5 0.1,0.7 -2.7,-0.1 -5.1,-1.4 -6.8,-3.4 -0.3,0.5 -0.4,1 -0.4,1.7 0,1.1 0.6,2.1 1.5,2.7 -0.5,0 -1,-0.2 -1.5,-0.4 l 0,0 c 0,1.6 1.1,2.9 2.6,3.2 -0.4,0.3 -1,0.3 -1.5,0 0.4,1.3 1.6,2.3 3.1,2.3 -1.1,0.9 -2.5,1.4 -4.1,1.4 -0.3,0 -0.5,0 -0.8,0 1.5,0.9 3.2,1.5 5,1.5 6,0 9.3,-5 9.3,-9.3 0,-0.1 0,-0.3 0,-0.4 C 23,44.3 23.6,43.7 24,43 z"
     id="path11"
     style="fill:#d40000"
     inkscape:connector-curvature="0" /><path
     d="m 78,48 v 8 h 3 v -8 h 2 l 1,-3 h -3 c 0,0 0,-0.5 0,-1.3 0,-0.3 0.2,-0.7 0.7,-0.7 1,0 2.9,0 2.3,0 v -3 c 0,0 -1.6,0 -3.3,0 -1.7,0 -2.7,1.3 -2.7,2.8 0,1.5 0,2.3 0,2.3 h -2 v 3 l 2,-0.1 0,0 z"
     id="path13"
     style="fill:#ff00ff"
     inkscape:connector-curvature="0" /><path
     d="m 112,56 c -4.4,0 -8,-3.6 -8,-8 0,-4.4 3.6,-8 8,-8 4.4,0 8,3.6 8,8 0,4.4 -3.6,8 -8,8 z m 6.7,-6.9 c -0.2,-0.1 -2.1,-0.6 -4.3,-0.3 0.9,2.5 1.1,3.7 1.3,4.9 1.7,-1.1 2.7,-2.7 3,-4.6 z m -4,5.2 c -0.2,-1.2 -0.5,-2.7 -1.5,-5.2 l 0,0 c -3.9,1.3 -5.2,4 -5.4,4.3 1.6,1.3 4.2,1.8 6.9,0.9 z m -7.8,-1.7 c 1.6,-3.1 5.8,-4.6 5.9,-4.6 -0.2,-0.4 -0.4,-0.8 -0.6,-1.2 -3.4,1 -6.7,1 -7,1 -0.1,1.9 0.6,3.6 1.7,4.8 z m -1.6,-6 c 0.3,0 3.1,0 6.3,-0.8 -1.1,-2 -2.3,-3.7 -2.5,-4 -1.9,0.9 -3.3,2.7 -3.8,4.8 z m 5.1,-5.2 c 0.2,0.3 1.4,1.9 2.5,4 2.4,-0.9 3.5,-2.3 3.6,-2.5 -1.2,-1.1 -3.5,-2 -6.1,-1.5 z m 6.9,2.3 c -0.1,0.2 -1.3,1.7 -3.8,2.7 0.2,0.3 0.4,0.9 0.6,1.4 2.3,-0.3 4,0 4.8,0.2 0,-1.8 -0.7,-3.2 -1.6,-4.3 z"
     id="path15"
     style="fill:#ffffff;stroke:#483737"
     inkscape:connector-curvature="0" /><path
     d="m 50.8,49.1 c -0.6,0 -1.1,0.7 -1.1,1.6 0,0.9 0.5,1.6 1.1,1.6 0.6,0 1.1,-0.7 1.1,-1.6 0,-0.9 -0.5,-1.6 -1.1,-1.6 z m 3.9,-4 c 0.1,-0.3 0.1,-2.1 -0.6,-3.8 0,0 -1.6,0.2 -4,1.8 -0.5,-0.1 -1.3,-0.2 -2.2,-0.2 -0.9,0 -1.7,0.1 -2.2,0.2 -2.4,-1.6 -4,-1.8 -4,-1.8 C 41,43 41,44.8 41.1,45.1 40.5,45.9 40,47 40,48.4 c 0,6.2 5.2,6.3 6.5,6.3 0.3,0 0.9,0 1.5,0 0.6,0 1.2,0 1.5,0 1.3,0 6.5,-0.1 6.5,-6.3 0,-1.4 -0.5,-2.5 -1.3,-3.3 z M 48,54 l 0,0 c -3.3,0 -5.9,-0.4 -5.9,-3.6 0,-0.8 0.3,-1.5 0.9,-2.1 1.1,-1 2.9,-0.5 4.9,-0.5 l 0,0 0,0 c 2.1,0 3.9,-0.5 4.9,0.5 0.6,0.6 0.9,1.3 0.9,2.1 0.2,3.2 -2.4,3.6 -5.7,3.6 z m -2.8,-4.9 c -0.6,0 -1.1,0.7 -1.1,1.6 0,0.9 0.5,1.6 1.1,1.6 0.6,0 1.1,-0.7 1.1,-1.6 0.1,-0.9 -0.4,-1.6 -1.1,-1.6 z"
     id="path17"
     style="fill:#ff5555;stroke:#ff8080"
     inkscape:connector-curvature="0" /><path
     d="M 84.237828,35.554041 69.202031,4.3255014 88.053036,5.0888817 84.237828,35.554041"
     style="fill:#2e3491;fill-opacity:1;fill-rule:nonzero;stroke:none"
     id="path256"
     inkscape:connector-curvature="0"
     sodipodi:nodetypes="cccc" /><path
     d="M 70.798082,15.128373 39.121913,2.7474468 36.445089,28.101986 70.798082,15.128373"
     style="fill:#30b343;fill-opacity:1;fill-rule:nonzero;stroke:none"
     id="path272"
     inkscape:connector-curvature="0"
     sodipodi:nodetypes="cccc" /><path
     d="M 27.558195,7.3939938 -6.2735599,10.180991 14.526599,25.537337 28.434907,8.7090623"
     style="fill:#30888c;fill-opacity:1;fill-rule:nonzero;stroke:none"
     id="path274"
     inkscape:connector-curvature="0"
     sodipodi:nodetypes="cccc" /><path
     d="m 132.2428,12.400488 -29.58181,-10.7392117 0,28.6324897 29.58181,-17.893278"
     style="fill:#593da0;fill-opacity:1;fill-rule:nonzero;stroke:none"
     id="path278"
     inkscape:connector-curvature="0"
     sodipodi:nodetypes="cccc" /><path
     style="opacity:0.02999998;fill:#1d1d1d;fill-opacity:1;fill-rule:evenodd;stroke:#76767c;stroke-width:6.84299994;stroke-miterlimit:4;stroke-opacity:1;stroke-dasharray:none"
     d="m 54.116887,68.735691 c 0,-0.88255 0.0605,-1.2436 0.13439,-0.80233 0.0739,0.44129 0.0739,1.16338 0,1.60465 -0.0739,0.44126 -0.13439,0.0802 -0.13439,-0.80232 z"
     id="path5174"
     inkscape:connector-curvature="0" /><path
     style="fill:#ffffff"
     inkscape:connector-curvature="0"
     d="m 24.05,9.9041096 c -0.6,0.3000004 -1.2,0.4000004 -1.9,0.5000004 0.7,-0.4 1.2,-1.0000004 1.4,-1.8000004 -0.6,0.4 -1.3,0.6 -2.1,0.8 -0.6,-0.6 -1.5,-1 -2.4,-1 -1.8,0 -3.3,1.5 -3.3,3.2999994 0,0.3 0,0.5 0.1,0.7 -2.7,-0.1 -5.1,-1.4 -6.8000002,-3.3999994 -0.3,0.5 -0.4,1.0000004 -0.4,1.6999994 0,1.1 0.6,2.1 1.5000002,2.7 -0.5000002,0 -1.0000002,-0.2 -1.5000002,-0.4 l 0,0 c 0,1.6 1.1,2.9 2.6000002,3.2 -0.4,0.3 -1,0.3 -1.5000002,0 0.4000002,1.3 1.6000002,2.3 3.1000002,2.3 -1.1,0.9 -2.5,1.4 -4.1000002,1.4 -0.3,0 -0.5,0 -0.8,0 1.5,0.9 3.2000002,1.5 5.0000002,1.5 6,0 9.3,-5 9.3,-9.3 0,-0.1 0,-0.3 0,-0.4 0.8,-0.5 1.4,-1.1 1.8,-1.7999994 z"
     id="path3" /><path
     style="fill:#ffffff"
     d="m 80.750005,6.9041096 c -1.7,0 -2.7,1.3 -2.7,2.8 0,1.4999994 0,2.2999994 0,2.2999994 l -2,0 0,3 2,0 0,-0.1 0,8 3,0 0,-8 2,0 1,-3 -3,0 c 0,0 0,-0.5 0,-1.3 0,-0.299999 0.2,-0.6999994 0.7,-0.6999994 l 0,0 c 1,0 2.9,0 2.3,0 l 0,-3 c 0,0 -1.6,0 -3.3,0 z"
     id="path5"
     inkscape:connector-curvature="0"
     sodipodi:nodetypes="cscccccccccccscccccc" /><path
     style="fill:#ffffff"
     inkscape:connector-curvature="0"
     d="m 112.05,22.904109 c -4.4,0 -8,-3.6 -8,-8 0,-4.4 3.6,-7.9999994 8,-7.9999994 4.4,0 8,3.5999994 8,7.9999994 0,4.4 -3.6,8 -8,8 z m 6.7,-6.9 c -0.2,-0.1 -2.1,-0.6 -4.3,-0.3 0.9,2.5 1.1,3.7 1.3,4.9 1.7,-1.1 2.7,-2.7 3,-4.6 z m -4,5.2 c -0.2,-1.2 -0.5,-2.7 -1.5,-5.2 l 0,0 c -3.9,1.3 -5.2,4 -5.4,4.3 1.6,1.3 4.2,1.8 6.9,0.9 z m -7.8,-1.7 c 1.6,-3.1 5.8,-4.6 5.9,-4.6 -0.2,-0.4 -0.4,-0.8 -0.6,-1.2 -3.4,1 -6.7,1 -7,1 -0.1,1.9 0.6,3.6 1.7,4.8 z m -1.6,-6 c 0.3,0 3.1,0 6.3,-0.8 -1.1,-2 -2.3,-3.6999994 -2.5,-3.9999994 -1.9,0.9 -3.3,2.6999994 -3.8,4.7999994 z m 5.1,-5.1999994 c 0.2,0.3 1.4,1.9000004 2.5,3.9999994 2.4,-0.9 3.5,-2.299999 3.6,-2.4999994 -1.2,-1.1 -3.5,-2 -6.1,-1.5 z m 6.9,2.2999994 c -0.1,0.2 -1.3,1.7 -3.8,2.7 0.2,0.3 0.4,0.9 0.6,1.4 2.3,-0.3 4,0 4.8,0.2 0,-1.8 -0.7,-3.2 -1.6,-4.3 z"
     id="path7" /><path
     style="fill:#ffffff"
     inkscape:connector-curvature="0"
     d="m 50.85,16.004109 c -0.6,0 -1.1,0.7 -1.1,1.6 0,0.9 0.5,1.6 1.1,1.6 0.6,0 1.1,-0.7 1.1,-1.6 0,-0.9 -0.5,-1.6 -1.1,-1.6 z m 3.9,-4 c 0.1,-0.3 0.1,-2.0999994 -0.6,-3.7999994 0,0 -1.6,0.2 -4,1.8000004 -0.5,-0.1000004 -1.3,-0.2000004 -2.2,-0.2000004 -0.9,0 -1.7,0.1 -2.2,0.2000004 -2.4,-1.6000004 -4,-1.8000004 -4,-1.8000004 -0.7,1.7 -0.7,3.4999994 -0.6,3.7999994 -0.6,0.8 -1.1,1.9 -1.1,3.3 0,6.2 5.2,6.3 6.5,6.3 0.3,0 0.9,0 1.5,0 0.6,0 1.2,0 1.5,0 1.3,0 6.5,-0.1 6.5,-6.3 0,-1.4 -0.5,-2.5 -1.3,-3.3 z m -6.7,8.9 0,0 c -3.3,0 -5.9,-0.4 -5.9,-3.6 0,-0.8 0.3,-1.5 0.9,-2.1 1.1,-1 2.9,-0.5 4.9,-0.5 l 0,0 0,0 c 2.1,0 3.9,-0.5 4.9,0.5 0.6,0.6 0.9,1.3 0.9,2.1 0.2,3.2 -2.4,3.6 -5.7,3.6 z m -2.8,-4.9 c -0.6,0 -1.1,0.7 -1.1,1.6 0,0.9 0.5,1.6 1.1,1.6 0.6,0 1.1,-0.7 1.1,-1.6 0.1,-0.9 -0.4,-1.6 -1.1,-1.6 z"
     id="path9" /></svg>